<svg
    version="1.0" 
    xmlns="http://www.w3.org/2000/svg"
    width="232.000000pt"
    height="204.000000pt" 
    viewBox="0 0 232.000000 204.000000"  
    preserveAspectRatio="xMidYMid meet"
>  
    <g 
        transform="translate(0.000000,204.000000) 
        scale(0.050000,-0.050000)" 
        fill="#f7ea36" 
        stroke="none"
    > 
        <path 
            d="M1796 3541 c-613 -196 -899 -913 -587 -1471 157 -280 277 -389 384 -349 141 54 141 158 1 380 -195 310 -221 513 -98 763 317 644 1274 423 1274 -294 0 -334 -72 -423 -658 -814 -472 -314 -472 -314 -472 -418 0 -89 71 -158 163 -158 81 0 911 556 1050 704 700 743 -82 1969 -1057 1657z"
        /> 
        <path 
            d="M2160 1168 c-382 -259 -427 -324 -302 -450 92 -91 130 -79 476 154 405 273 437 320 308 450 -94 93 -137 79 -482 -154z"
        /> 
    </g>
</svg> 